<?xml version="1.0" standalone="no"?>
<!DOCTYPE svg PUBLIC "-//W3C//DTD SVG 20010904//EN"
 "http://www.w3.org/TR/2001/REC-SVG-20010904/DTD/svg10.dtd">
<svg version="1.0" xmlns="http://www.w3.org/2000/svg"
 width="1024.000000pt" height="1024.000000pt" viewBox="0 0 1024.000000 1024.000000"
 preserveAspectRatio="xMidYMid meet">

<g transform="translate(0.000000,1024.000000) scale(0.100000,-0.100000)"
fill="#000000" stroke="none">
<path d="M4930 7284 c-276 -19 -561 -89 -750 -184 -91 -46 -226 -132 -275
-175 -33 -29 -37 -30 89 16 113 42 304 94 431 118 258 48 330 53 740 52 363
-2 785 14 785 29 0 8 -232 73 -338 95 -165 34 -524 60 -682 49z"/>
<path d="M6040 7039 c-30 -12 -100 -30 -155 -41 -90 -18 -161 -21 -710 -28
-335 -5 -626 -12 -645 -15 -19 -3 -81 -13 -137 -21 -306 -42 -685 -179 -853
-307 -25 -19 -171 -190 -166 -194 1 -2 27 10 57 26 195 105 574 230 835 275
199 34 275 38 889 45 587 7 638 9 740 29 61 12 144 32 186 45 94 30 248 90
249 98 0 10 -197 109 -216 108 -11 0 -44 -9 -74 -20z"/>
<path d="M6310 6829 c-187 -95 -412 -166 -655 -206 -97 -16 -168 -18 -615 -16
-694 4 -839 -7 -1138 -83 -216 -55 -501 -170 -644 -260 -36 -23 -57 -58 -126
-207 -2 -5 13 3 35 16 164 104 472 223 723 281 205 47 267 50 890 52 369 1
630 6 686 13 200 24 410 79 618 160 168 65 445 194 445 206 0 11 -89 82 -110
89 -8 2 -57 -18 -109 -45z"/>
<path d="M6370 6599 c-409 -206 -614 -282 -885 -331 -113 -20 -164 -22 -820
-28 -654 -6 -708 -8 -820 -28 -268 -47 -499 -137 -712 -274 l-69 -45 -27 -83
c-14 -46 -25 -85 -23 -87 2 -2 32 14 67 37 177 114 452 220 679 261 119 21
160 23 815 30 380 4 706 10 725 14 19 3 82 15 140 26 213 40 372 98 715 259
265 124 384 174 503 210 39 12 72 25 72 29 0 4 -28 34 -62 68 l-63 61 -235
-119z"/>
<path d="M6658 6450 c-99 -18 -220 -67 -502 -205 -481 -235 -638 -289 -1016
-351 -87 -14 -213 -18 -745 -24 -677 -7 -732 -11 -915 -60 -153 -42 -313 -112
-441 -195 l-66 -42 -16 -83 c-9 -46 -15 -85 -13 -87 2 -2 35 16 72 40 194 125
409 198 666 226 55 6 300 11 561 11 485 0 650 8 857 41 326 51 518 118 912
315 389 195 521 240 677 232 132 -7 201 -46 380 -214 44 -42 81 -74 81 -72 0
14 -74 174 -104 225 -45 77 -147 207 -179 227 -28 19 -146 28 -209 16z"/>
<path d="M6435 6073 c-103 -23 -225 -72 -415 -165 -380 -186 -533 -246 -782
-307 -301 -75 -391 -82 -1088 -91 -672 -9 -692 -10 -878 -72 -99 -33 -225 -92
-303 -143 -41 -26 -47 -35 -53 -74 -7 -53 -8 -121 -1 -121 3 0 22 11 43 24
121 76 281 135 437 162 84 15 162 17 495 16 946 -5 1270 59 1956 387 445 212
570 239 741 157 57 -28 94 -59 233 -197 133 -133 178 -172 235 -201 69 -36
210 -88 238 -88 20 0 -17 201 -40 215 -76 47 -194 146 -313 259 -157 150 -236
208 -313 231 -47 14 -147 18 -192 8z"/>
<path d="M6140 5685 c-41 -13 -158 -65 -260 -116 -414 -204 -724 -315 -1041
-373 -245 -45 -298 -48 -914 -56 -629 -8 -644 -9 -790 -56 -60 -20 -213 -93
-221 -106 -3 -5 -3 -42 1 -82 l7 -74 79 35 c169 73 187 75 834 83 519 6 596 9
734 29 339 48 605 131 963 299 45 22 151 71 233 110 209 99 320 135 416 136
68 1 83 -3 152 -37 65 -32 90 -53 174 -145 199 -217 274 -287 354 -326 100
-49 204 -73 347 -82 l120 -7 7 91 c4 50 4 95 0 101 -3 6 -18 11 -31 11 -38 0
-180 38 -249 67 -118 49 -178 95 -360 274 -219 214 -261 241 -395 246 -70 3
-98 -1 -160 -22z"/>
<path d="M5955 5286 c-100 -20 -208 -60 -475 -173 -471 -201 -767 -286 -1190
-344 -48 -6 -324 -14 -640 -19 -524 -7 -559 -8 -634 -29 -44 -11 -80 -22 -82
-24 -3 -3 13 -89 26 -137 l10 -37 57 13 c115 27 247 35 628 39 215 2 433 8
485 14 391 45 709 133 1230 341 339 135 426 161 562 167 159 8 175 -2 408
-237 201 -203 239 -230 380 -270 72 -21 286 -38 485 -39 l71 -1 17 83 c29 138
38 127 -112 127 -211 0 -340 25 -472 91 -79 39 -147 96 -294 246 -107 109
-141 137 -196 163 -80 37 -164 45 -264 26z"/>
<path d="M5585 4845 c-71 -18 -233 -72 -360 -120 -454 -171 -716 -248 -1027
-299 -235 -39 -341 -47 -766 -55 -216 -4 -397 -12 -401 -17 -5 -5 7 -49 26
-97 l35 -89 72 7 c39 4 123 7 186 7 274 -3 566 25 825 78 288 59 479 114 915
267 306 108 457 145 591 146 103 1 108 0 181 -35 57 -29 103 -65 199 -154 200
-189 286 -245 440 -285 72 -19 123 -23 359 -29 195 -5 278 -4 287 4 8 8 83
196 83 210 0 0 -96 0 -212 -2 -238 -4 -361 9 -486 52 -109 37 -171 78 -306
207 -147 141 -220 193 -304 219 -95 30 -182 26 -337 -15z"/>
<path d="M5275 4446 c-124 -26 -212 -52 -465 -136 -621 -207 -1119 -310 -1498
-310 l-144 0 47 -87 c26 -49 53 -95 61 -103 38 -39 636 75 1099 210 810 236
929 261 1096 230 76 -14 141 -50 239 -131 203 -167 307 -228 465 -271 74 -20
108 -22 431 -26 l352 -4 51 87 c28 48 51 89 51 91 0 2 -125 4 -277 4 -495 0
-620 37 -871 259 -108 95 -199 158 -266 184 -81 31 -234 33 -371 3z"/>
<path d="M4945 4024 c-134 -20 -340 -68 -625 -146 -371 -101 -574 -151 -762
-188 l-166 -33 48 -61 c26 -33 60 -72 74 -85 l25 -23 268 80 c667 201 1017
283 1208 284 123 0 198 -25 306 -102 276 -196 355 -238 529 -284 140 -36 366
-51 555 -37 258 19 239 13 328 102 42 43 77 83 77 88 0 7 -13 8 -32 3 -18 -4
-163 -7 -323 -7 -233 0 -308 4 -382 18 -200 38 -333 99 -513 233 -222 166
-349 199 -615 158z"/>
<path d="M4588 3625 c-42 -7 -132 -27 -199 -44 -219 -57 -709 -216 -709 -231
0 -4 37 -33 81 -65 61 -44 90 -59 113 -58 17 1 121 26 231 57 358 99 568 132
676 106 71 -17 148 -51 228 -102 259 -163 540 -248 823 -248 112 0 163 5 224
20 82 21 305 126 312 147 3 9 -23 11 -110 6 -139 -7 -395 18 -535 52 -196 47
-369 120 -528 221 -123 78 -230 130 -293 143 -69 14 -216 12 -314 -4z"/>
<path d="M4313 3157 c-156 -22 -283 -43 -283 -46 0 -11 201 -108 300 -144 185
-68 392 -117 585 -138 124 -13 455 -7 495 10 25 10 25 10 -6 10 -46 1 -251 74
-357 128 -51 25 -144 78 -208 118 -152 95 -172 105 -211 104 -18 -1 -160 -19
-315 -42z"/>
</g>
</svg>
